# xmcd
#
# Track frame offsets:
#	150
#	34496
#	63288
#	88998
#	108249
#	138441
#	156234
#	174789
#	207680
#	242551
#
# Disc length: 3495 seconds
#
# Revision: 1
# Processed by: cddbd v1.4PL0 Copyright (c) Steve Scherf et al.
# Submitted via: EasyCDDAExtractor 6.2.0.3
#
DISCID=8a0da50a
DTITLE=Mandrill - SUNSHINE - Love Songs
DYEAR=2003
DGENRE=R n B
TTITLE0=Sunshine
TTITLE1=Getting In The Mood
TTITLE2=Love Song
TTITLE3=Starry Eyed
TTITLE4=Moroccan Nights
TTITLE5=Too Late
TTITLE6=I Refuse To Smile
TTITLE7=Solid
TTITLE8=Sunshine - Instrumental
TTITLE9=Lady Jane
EXTD=
EXTT0=
EXTT1=
EXTT2=
EXTT3=
EXTT4=
EXTT5=
EXTT6=
EXTT7=
EXTT8=
EXTT9=
PLAYORDER=
